<?xml version="1.0" encoding="utf-8"?>
<!-- Generator: Adobe Illustrator 15.1.0, SVG Export Plug-In . SVG Version: 6.00 Build 0)  -->
<!DOCTYPE svg PUBLIC "-//W3C//DTD SVG 1.1//EN" "http://www.w3.org/Graphics/SVG/1.1/DTD/svg11.dtd">
<svg version="1.1" id="Layer_1" xmlns="http://www.w3.org/2000/svg" xmlns:xlink="http://www.w3.org/1999/xlink" x="0px" y="0px"
	 width="792px" height="612px" viewBox="0 0 792 612" enable-background="new 0 0 792 612" xml:space="preserve">
<path fill-rule="evenodd" clip-rule="evenodd" stroke="#000000" stroke-width="2.9999" stroke-linecap="round" stroke-linejoin="round" stroke-miterlimit="22.9256" d="
	M497.733,187.484c26.499,5.47,56.487,11.453,89.303,22.437c32.817,10.983,68.462,26.965,96.435,47.694
	c27.974,20.729,48.273,46.206,61.024,78.794c12.751,32.591,17.949,72.296,2.426,107.965c-15.524,35.67-51.772,67.304-100.64,89.372
	c-48.867,22.067-110.352,34.568-175.325,37.185c-64.975,2.616-133.438-4.652-186.589-25.055
	c-53.152-20.404-90.993-53.943-112.519-86.806c-21.526-32.861-26.736-65.046-25.268-67.298c1.468-2.252,9.613,25.43,24.939,50.367
	c15.327,24.938,37.835,47.136,83.114,65.791c45.28,18.655,113.332,33.771,189.01,28.829c75.679-4.94,158.985-29.937,202.163-58.278
	c43.18-28.342,46.232-60.03,38.795-86.485c-7.437-26.455-25.363-47.678-47.129-60.998c-21.766-13.319-47.372-18.735-77.314-19.972
	c-12.416-0.513-25.578-0.307-39.018,0.101c-5.882,5.33-15.552,10.465-24.961,14.059c-14.361,5.485-28.116,7.377-32.299,8.778
	s1.207,2.313,11.319,4.664c10.113,2.351,24.951,6.143,36.709,9.695s20.436,6.868,24.985,10.691
	c4.549,3.823,4.969,8.155,2.544,14.908c-2.424,6.754-7.693,15.928-12.236,25.757c-4.542,9.829-8.357,20.315-10.033,30.097
	c-1.675,9.782-1.21,18.86-0.2,25.041c1.009,6.183,2.563,9.467,0.682,9.464c-1.879-0.002-7.192-3.292-11.087-7.842
	c-3.894-4.55-6.367-10.359-6.767-18.155c-0.399-7.795,1.276-17.576,2.627-25.957c1.353-8.38,2.381-15.358,0.563-16.057
	c-1.816-0.699-6.478,4.884-10.917,10.948c-4.438,6.064-8.653,12.612-11.88,21.088c-3.227,8.477-5.464,18.881-7.286,29.659
	s-3.229,21.933-2.316,30.098s4.146,13.342,8.778,16.863c4.633,3.523,10.664,5.391,7.033,5.973s-16.924-0.122-24.484-4.781
	c-7.56-4.658-9.387-13.271-9.553-24.245s1.328-24.308,4.199-35.833c2.873-11.524,7.124-21.241,1.903-20.389
	c-5.221,0.852-19.913,12.27-30.051,22.979c-10.137,10.71-15.717,20.711-18.282,28.173c-2.564,7.463-2.115,12.387-2.761,13.311
	c-0.645,0.923-2.385-2.154-3.87-9.895c-1.484-7.74-2.714-20.143,1.222-30.238c3.935-10.096,13.034-17.883,22.75-25.207
	c9.717-7.325,20.052-14.186,22.983-16.81c2.934-2.623-1.536-1.01-9.572,0.49s-19.639,2.886-27.007,4.857
	c-7.366,1.972-10.496,4.529-11.174,2.882s1.096-7.499,5.193-11.479c4.098-3.981,10.521-6.091,19.855-8.497
	c9.337-2.405,21.587-5.107,32.034-9.095c10.449-3.987,19.093-9.259,13.204-12.966c-5.89-3.707-26.313-5.849-44.941-8.962
	s-35.458-7.198-44.602-11.876c-9.145-4.675-10.602-9.942-7.448-17.921c3.034-7.676,10.338-17.861,24.16-27.938
	c-9.461-1.594-18.873-3.593-28.311-6.044c-30.117-7.819-60.505-20.238-85.118-28.437c-4.195-1.397-8.222-2.671-12.096-3.841
	c2.793,1.919,5.54,3.941,7.992,6.092c7.563,6.638,12.319,14.506,12.189,21.637c-0.129,7.13-5.144,13.522-15.667,18.612
	c-10.524,5.09-26.556,8.88-38.281,11.756c-11.725,2.876-19.144,4.839-25.558,5.167c-6.414,0.329-11.825-0.976-18.803,1.854
	c-6.979,2.831-15.526,9.799-19.958,17.94c-4.431,8.143-4.745,17.458-4.79,24.287c-0.046,6.829,0.176,11.17-0.742,10.624
	c-0.919-0.546-2.978-5.981-3.805-12.469c-0.828-6.487-0.422-14.027,0.034-20.581c0.456-6.554,0.962-12.119,5.717-17.805
	c4.754-5.686,13.757-11.488,13.475-13.156c-0.284-1.667-9.854,0.801-18.573,4.414c-8.719,3.612-16.589,8.369-22.644,15.704
	s-10.296,17.247-12.502,24.385c-2.208,7.139-2.38,11.5-3.248,11.94s-2.432-3.041-2.524-10.655c-0.093-7.613,1.284-19.358,5.28-28.27
	s10.61-14.988,19.166-19.879c8.555-4.891,19.051-8.594,21.915-10.621c2.864-2.025-1.902-2.376-9.989-1.862
	c-8.087,0.514-19.494,1.89-28.382,4.125c-8.889,2.237-15.26,5.333-13.425,2.518c1.834-2.813,11.874-11.541,22.542-15.748
	c10.668-4.208,21.962-3.895,32.028-2.481c10.066,1.414,18.9,3.93,20.849,3.334c1.948-0.594-2.99-4.298-8.352-6.597
	c-5.361-2.297-11.146-3.188-11.128-4.772c0.018-1.584,5.837-3.861,14.149-1.912c8.312,1.949,19.114,8.123,27.748,10.55
	c8.633,2.427,15.096,1.107,20.076-0.591s8.475-3.774,1.576-9.173c-6.9-5.398-24.198-14.121-38.915-27.057
	c-7.919-6.96-15.089-15.14-19.407-22.383c-8.676-9.082-16.362-21.227-28.421-26.819c-14.09-6.533-34.149-4.12-48.442-3.109
	c-14.293,1.012-22.819,0.622-32.639,0.117c-9.819-0.503-20.93-1.122-27.787-3.639c-6.856-2.518-9.458-6.936-8.783-14.985
	c0.677-8.048,4.629-19.727,10.58-27.156c5.952-7.428,13.902-10.605,20.987-19.082c7.085-8.476,13.306-22.25,21.4-32.244
	c8.095-9.994,18.063-16.208,27.488-19.543c9.424-3.334,18.306-3.789,29.266-6.132c3.734-0.798,7.709-1.814,12.045-2.696
	c0.224-0.106,0.449-0.214,0.675-0.326c9.349-4.596,20.32-13.49,30.325-22.423c10.005-8.932,19.043-17.904,21.885-18.445
	c2.842-0.541-0.514,7.348-6.058,15.353s-13.276,16.125-10.812,17.878c2.465,1.754,15.125-2.859,31.427-9.437
	c16.303-6.577,36.247-15.118,41.668-15.495c5.422-0.376-3.677,7.411-16.591,15.497c-12.914,8.087-29.643,16.473-27.953,18.562
	c1.69,2.091,21.798-2.115,41.187-5.488c19.389-3.372,38.058-5.912,40.684-4.859c2.625,1.053-10.789,5.698-26.181,11.251
	c-15.391,5.553-32.759,12.013-30.782,13.891c1.976,1.877,23.294-0.828,40.437-3.107c17.142-2.278,30.108-4.13,33.232-3.004
	c3.125,1.126-3.591,5.23-18.552,10.125c-11.252,3.681-27.167,7.81-34.283,10.468c1.967,0.97,3.945,1.947,5.934,2.93
	c8.667-0.195,21.761-1.125,33.194-1.873c19.007-1.244,33.415-1.982,35.765-0.519c2.351,1.462-7.356,5.125-17.424,9.275
	c-8.496,3.503-17.25,7.353-17.52,9.543c1.233,0.569,2.47,1.135,3.709,1.699c6.612,0.78,20.934-0.052,31.967-0.596
	c13.216-0.651,21.712-0.888,18.995,1.533c-2.716,2.422-16.646,7.504-19.204,9.713c-2.558,2.208,6.255,1.544,17.511,1.652
	c11.257,0.109,24.955,0.99,25.126,3.429c0.13,1.839-7.421,4.563-12.025,7.743c16.184,4.93,32.128,9.092,46.965,12.754
	C448.227,177.062,471.235,182.016,497.733,187.484z"/>
</svg>
